<svg width="13" height="13" viewBox="0 0 13 13" fill="none" xmlns="http://www.w3.org/2000/svg">
<path d="M12.6696 11.6638L10.2613 9.2625C11.0383 8.27257 11.4599 7.05013 11.4583 5.79167C11.4583 4.67091 11.126 3.57531 10.5033 2.64344C9.88067 1.71156 8.99566 0.985247 7.96021 0.55635C6.92476 0.127453 5.78538 0.0152345 4.68616 0.233884C3.58693 0.452534 2.57723 0.992231 1.78473 1.78473C0.992233 2.57723 0.452536 3.58693 0.233886 4.68616C0.0152364 5.78538 0.127455 6.92476 0.556352 7.96021C0.985248 8.99566 1.71156 9.88067 2.64344 10.5033C3.57532 11.126 4.67091 11.4583 5.79167 11.4583C7.05013 11.4599 8.27258 11.0383 9.2625 10.2613L11.6638 12.6696C11.7296 12.736 11.8079 12.7887 11.8943 12.8246C11.9806 12.8606 12.0732 12.8791 12.1667 12.8791C12.2602 12.8791 12.3528 12.8606 12.4391 12.8246C12.5254 12.7887 12.6037 12.736 12.6696 12.6696C12.736 12.6037 12.7887 12.5254 12.8246 12.4391C12.8606 12.3528 12.8791 12.2602 12.8791 12.1667C12.8791 12.0732 12.8606 11.9806 12.8246 11.8943C12.7887 11.8079 12.736 11.7296 12.6696 11.6638V11.6638ZM1.54167 5.79167C1.54167 4.9511 1.79093 4.1294 2.25792 3.43049C2.72492 2.73159 3.38868 2.18685 4.16526 1.86518C4.94185 1.54351 5.79638 1.45934 6.6208 1.62333C7.44522 1.78732 8.2025 2.19209 8.79687 2.78646C9.39125 3.38084 9.79602 4.13811 9.96001 4.96253C10.124 5.78695 10.0398 6.64149 9.71816 7.41807C9.39649 8.19466 8.85175 8.85842 8.15284 9.32541C7.45393 9.79241 6.63224 10.0417 5.79167 10.0417C4.6645 10.0417 3.5835 9.5939 2.78647 8.79687C1.98944 7.99984 1.54167 6.91884 1.54167 5.79167Z" fill="black"/>
</svg>
